<svg width="120" height="92" fill="none" xmlns="http://www.w3.org/2000/svg"><rect x=".638" y=".827" width="119.097" height="90.621" rx="3.547" fill="#C8E2E0" stroke="#DEDEDE" stroke-width=".5"/><path d="M.335 4.373c0-2.097 1.7-3.796 3.797-3.796h112.003c2.097 0 3.797 1.7 3.797 3.796v13.289H.335V4.373Z" fill="#8BB7B4"/><rect x="7.982" y="44.239" width="104.41" height="36.069" rx="1.898" fill="#AFD4D2"/><rect x="7.982" y="6.272" width="5.695" height="5.695" rx="2.848" fill="#E4F1F0"/><rect x="19.372" y="6.273" width="5.695" height="5.695" rx="2.848" fill="#E4F1F0"/><rect x="30.762" y="6.273" width="5.695" height="5.695" rx="2.848" fill="#E4F1F0"/><path d="m103.834 6.362 6.041 6.846m0-6.846-6.041 6.846" stroke="#E4F1F0" stroke-width="1.208" stroke-linecap="round"/><rect x="7.872" y="23.625" width="28.432" height="14.647" rx="1.898" fill="#EEF9F8"/><path d="M13.448 32.975v-4.963h.938V32.1h2.136v.876h-3.074Zm5.655.103c-.496 0-.924-.108-1.285-.324a2.173 2.173 0 0 1-.83-.906c-.194-.388-.29-.84-.29-1.354 0-.515.096-.966.29-1.355.195-.388.472-.69.83-.906.36-.216.79-.324 1.285-.324.497 0 .924.108 1.282.324.361.216.638.518.831.906.195.389.293.84.293 1.355 0 .514-.098.966-.293 1.354-.193.388-.47.69-.83.906-.359.216-.786.324-1.282.324Zm0-.882c.315.005.577-.063.786-.203.21-.14.366-.34.469-.596.106-.258.158-.559.158-.903 0-.345-.052-.644-.158-.896a1.265 1.265 0 0 0-.469-.59c-.209-.14-.47-.212-.785-.217-.315-.005-.577.063-.786.203-.21.14-.367.34-.472.597a2.413 2.413 0 0 0-.155.903c0 .344.051.643.155.896.105.252.263.449.472.589.209.14.47.212.785.217Zm5.162.882a2.44 2.44 0 0 1-.893-.165 2.21 2.21 0 0 1-.751-.496 2.363 2.363 0 0 1-.514-.81 3.08 3.08 0 0 1-.186-1.113c0-.55.105-1.016.314-1.4.211-.386.494-.68.848-.882.356-.202.75-.303 1.182-.303.638 0 1.14.148 1.506.444.365.297.61.716.734 1.258l-.958.138c-.09-.29-.237-.52-.441-.692-.203-.175-.462-.264-.78-.266-.314-.005-.576.063-.785.203-.21.14-.367.34-.472.597a2.413 2.413 0 0 0-.155.903c0 .344.051.643.155.896.105.252.263.449.472.589.209.14.47.212.786.217.213.005.406-.032.579-.11.174-.078.321-.201.44-.369.12-.168.205-.383.256-.644h-.786v-.724h1.785c.005.03.008.082.01.158l.004.131c0 .476-.096.897-.29 1.265a2.147 2.147 0 0 1-.816.865c-.352.207-.767.31-1.244.31Zm5.17 0c-.496 0-.924-.108-1.285-.324a2.173 2.173 0 0 1-.83-.906c-.194-.388-.29-.84-.29-1.354 0-.515.096-.966.29-1.355.195-.388.472-.69.83-.906.36-.216.79-.324 1.286-.324s.923.108 1.282.324c.36.216.637.518.83.906.195.389.293.84.293 1.355 0 .514-.098.966-.293 1.354-.193.388-.47.69-.83.906-.359.216-.786.324-1.282.324Zm0-.882c.315.005.577-.063.786-.203.21-.14.366-.34.469-.596.106-.258.159-.559.159-.903 0-.345-.053-.644-.16-.896a1.265 1.265 0 0 0-.468-.59c-.209-.14-.47-.212-.785-.217-.315-.005-.577.063-.786.203-.21.14-.367.34-.472.597a2.413 2.413 0 0 0-.155.903c0 .344.051.643.155.896.105.252.263.449.472.589.209.14.47.212.786.217Z" fill="#AFD4D2"/><rect x="46.395" y="23.626" width="28.432" height="14.647" rx="1.898" fill="#EEF9F8"/><path d="M51.133 32.975v-4.963h.938V32.1h2.136v.876h-3.074Zm5.655.103c-.496 0-.924-.108-1.285-.324a2.173 2.173 0 0 1-.83-.906c-.194-.388-.29-.84-.29-1.354 0-.515.096-.966.29-1.355.195-.388.472-.69.83-.906.36-.216.79-.324 1.285-.324.497 0 .924.108 1.283.324.36.216.637.518.83.906.195.389.293.84.293 1.355 0 .514-.098.966-.293 1.354-.193.388-.47.69-.83.906-.359.216-.786.324-1.282.324Zm0-.882c.315.005.577-.063.786-.203.21-.14.366-.34.469-.596.106-.258.159-.559.159-.903 0-.345-.053-.644-.16-.896a1.265 1.265 0 0 0-.468-.59c-.209-.14-.47-.212-.785-.217-.315-.005-.577.063-.786.203-.21.14-.367.34-.472.597a2.413 2.413 0 0 0-.155.903c0 .344.051.643.155.896.105.252.263.449.472.589.209.14.47.212.785.217Zm5.162.882a2.44 2.44 0 0 1-.893-.165 2.21 2.21 0 0 1-.751-.496 2.364 2.364 0 0 1-.514-.81 3.082 3.082 0 0 1-.186-1.113c0-.55.105-1.016.314-1.4.211-.386.494-.68.848-.882.356-.202.75-.303 1.182-.303.638 0 1.14.148 1.506.444.365.297.61.716.734 1.258l-.958.138c-.09-.29-.237-.52-.441-.692-.203-.175-.462-.264-.78-.266-.314-.005-.576.063-.785.203-.21.14-.367.34-.472.597a2.415 2.415 0 0 0-.155.903c0 .344.052.643.155.896.105.252.263.449.472.589.21.14.471.212.786.217.213.005.406-.032.579-.11.174-.078.321-.201.44-.369.12-.168.205-.383.256-.644H62.5v-.724h1.785c.005.03.008.082.01.158l.004.131c0 .476-.096.897-.29 1.265a2.148 2.148 0 0 1-.816.865c-.352.207-.766.31-1.244.31Zm5.17 0c-.496 0-.924-.108-1.285-.324a2.173 2.173 0 0 1-.83-.906c-.194-.388-.29-.84-.29-1.354 0-.515.096-.966.29-1.355.195-.388.472-.69.83-.906.36-.216.79-.324 1.286-.324s.923.108 1.282.324c.36.216.637.518.83.906.195.389.293.84.293 1.355 0 .514-.098.966-.293 1.354-.193.388-.47.69-.83.906-.359.216-.786.324-1.282.324Zm0-.882c.315.005.577-.063.786-.203.21-.14.366-.34.469-.596.106-.258.159-.559.159-.903 0-.345-.053-.644-.159-.896a1.266 1.266 0 0 0-.469-.59c-.209-.14-.47-.212-.785-.217-.315-.005-.577.063-.786.203-.21.14-.367.34-.472.597a2.415 2.415 0 0 0-.155.903c0 .344.051.643.155.896.105.252.263.449.472.589.209.14.47.212.786.217Z" fill="#AFD4D2"/><rect x="84.079" y="23.625" width="28.432" height="14.647" rx="1.898" fill="#EEF9F8"/><path d="M88.818 32.975v-4.963h.938V32.1h2.136v.875h-3.074Zm5.655.103c-.496 0-.924-.108-1.285-.324a2.172 2.172 0 0 1-.83-.906c-.194-.388-.29-.84-.29-1.354 0-.515.096-.966.29-1.355.195-.388.472-.69.83-.906.36-.216.79-.324 1.285-.324.497 0 .924.108 1.282.324.361.216.638.518.831.906.195.389.293.84.293 1.355 0 .514-.098.966-.293 1.354a2.15 2.15 0 0 1-.83.907c-.359.215-.786.323-1.283.323Zm0-.882c.315.005.577-.063.786-.203.21-.14.365-.339.469-.596.106-.258.158-.559.158-.903 0-.345-.052-.643-.158-.896a1.264 1.264 0 0 0-.469-.59c-.209-.14-.47-.212-.786-.217-.314-.004-.576.064-.785.204a1.28 1.28 0 0 0-.472.596 2.412 2.412 0 0 0-.155.903c0 .344.051.643.155.896.105.252.263.449.472.59.209.14.47.212.785.216Zm5.162.883c-.313 0-.61-.056-.893-.166a2.208 2.208 0 0 1-1.265-1.306 3.08 3.08 0 0 1-.186-1.113c0-.55.105-1.016.314-1.4.211-.385.494-.68.848-.882.356-.202.75-.303 1.182-.303.638 0 1.14.148 1.506.445.365.296.61.715.734 1.258l-.958.137a1.44 1.44 0 0 0-.441-.692c-.203-.175-.462-.263-.78-.266-.314-.004-.576.064-.785.204-.21.14-.367.339-.472.596a2.412 2.412 0 0 0-.155.903c0 .344.051.643.155.896.106.252.263.449.472.59.209.14.47.212.786.216a1.32 1.32 0 0 0 .579-.11c.174-.078.321-.201.441-.369.119-.168.204-.382.255-.644h-.786v-.724h1.785c.005.03.008.083.011.159l.003.13c0 .476-.097.898-.29 1.265a2.142 2.142 0 0 1-.816.865c-.352.207-.766.31-1.244.31Zm5.17 0c-.496 0-.924-.108-1.285-.325a2.18 2.18 0 0 1-.831-.906c-.193-.388-.289-.84-.289-1.354 0-.515.096-.966.289-1.355a2.18 2.18 0 0 1 .831-.906c.361-.216.789-.324 1.285-.324.497 0 .924.108 1.282.324.361.216.638.518.831.906.195.389.293.84.293 1.355 0 .514-.098.966-.293 1.354-.193.389-.47.69-.831.907-.358.215-.785.323-1.282.323Zm0-.883c.315.005.577-.063.786-.203a1.26 1.26 0 0 0 .469-.596 2.36 2.36 0 0 0 .158-.903c0-.345-.052-.643-.158-.896a1.263 1.263 0 0 0-.469-.59c-.209-.14-.471-.212-.786-.217-.314-.004-.576.064-.785.204-.209.14-.367.339-.472.596a2.4 2.4 0 0 0-.155.903c0 .344.051.643.155.896.105.252.263.449.472.59.209.14.471.212.785.216Z" fill="#AFD4D2"/></svg>