<svg width="120" height="92" viewBox="0 0 120 92" fill="none" xmlns="http://www.w3.org/2000/svg">
<rect x="0.638306" y="0.826538" width="119.097" height="90.6212" rx="3.54671" fill="#C8E2E0" stroke="#DEDEDE" stroke-width="0.5"/>
<path d="M0.335419 4.37326C0.335419 2.27639 2.03527 0.576538 4.13213 0.576538L116.135 0.576538C118.232 0.576538 119.932 2.27639 119.932 4.37325V17.6618L0.335419 17.6618L0.335419 4.37326Z" fill="#8BB7B4"/>
<rect x="7.98209" y="44.2395" width="104.41" height="36.0688" rx="1.89836" fill="#AFD4D2"/>
<rect x="7.98221" y="6.27234" width="5.69507" height="5.69507" rx="2.84754" fill="#E4F1F0"/>
<rect x="19.3722" y="6.27307" width="5.69507" height="5.69507" rx="2.84754" fill="#E4F1F0"/>
<rect x="30.7622" y="6.27307" width="5.69507" height="5.69507" rx="2.84754" fill="#E4F1F0"/>
<path d="M103.834 6.36169L109.875 13.2083" stroke="#E4F1F0" stroke-width="1.20823" stroke-linecap="round"/>
<path d="M109.875 6.36169L103.834 13.2083" stroke="#E4F1F0" stroke-width="1.20823" stroke-linecap="round"/>
<rect x="7.87241" y="23.6249" width="28.4316" height="14.6466" rx="1.89836" fill="#EEF9F8"/>
<path d="M13.4483 32.9749L13.4483 28.0122L14.3857 28.0122L14.3857 32.0995L16.5223 32.0995L16.5223 32.9749L13.4483 32.9749ZM19.1035 33.0782C18.6072 33.0782 18.1787 32.9703 17.818 32.7543C17.4596 32.5383 17.1828 32.2362 16.9875 31.8479C16.7945 31.4597 16.698 31.0082 16.698 30.4936C16.698 29.9789 16.7945 29.5275 16.9875 29.1392C17.1828 28.7509 17.4596 28.4488 17.818 28.2328C18.1787 28.0168 18.6072 27.9089 19.1035 27.9089C19.5997 27.9089 20.0271 28.0168 20.3855 28.2328C20.7462 28.4488 21.023 28.7509 21.216 29.1392C21.4113 29.5275 21.509 29.9789 21.509 30.4936C21.509 31.0082 21.4113 31.4597 21.216 31.8479C21.023 32.2362 20.7462 32.5383 20.3855 32.7543C20.0271 32.9703 19.5997 33.0782 19.1035 33.0782ZM19.1035 32.196C19.4182 32.2006 19.6801 32.1328 19.8892 31.9927C20.0983 31.8525 20.2545 31.6538 20.3579 31.3965C20.4636 31.1391 20.5164 30.8382 20.5164 30.4936C20.5164 30.1489 20.4636 29.8503 20.3579 29.5975C20.2545 29.3448 20.0983 29.1484 19.8892 29.0082C19.6801 28.8681 19.4182 28.7957 19.1035 28.7911C18.7887 28.7865 18.5268 28.8543 18.3177 28.9944C18.1087 29.1346 17.9513 29.3333 17.8456 29.5906C17.7422 29.848 17.6905 30.1489 17.6905 30.4936C17.6905 30.8382 17.7422 31.1369 17.8456 31.3896C17.9513 31.6423 18.1087 31.8387 18.3177 31.9789C18.5268 32.119 18.7887 32.1914 19.1035 32.196ZM24.2647 33.0782C23.9522 33.0782 23.6547 33.0231 23.3721 32.9128C23.0895 32.8002 22.8391 32.6348 22.6208 32.4166C22.4048 32.1983 22.2337 31.9283 22.1073 31.6067C21.9832 31.285 21.9212 30.914 21.9212 30.4936C21.9212 29.9444 22.0258 29.4781 22.2348 29.0944C22.4462 28.7084 22.7288 28.4143 23.0826 28.2121C23.4387 28.01 23.8327 27.9089 24.2647 27.9089C24.9034 27.9089 25.4054 28.0571 25.7707 28.3534C26.136 28.6498 26.3807 29.0691 26.5047 29.6113L25.5467 29.7492C25.4571 29.4597 25.31 29.2288 25.1056 29.0565C24.9034 28.8819 24.6438 28.7934 24.3267 28.7911C24.0119 28.7865 23.75 28.8543 23.541 28.9944C23.3319 29.1346 23.1745 29.3333 23.0688 29.5906C22.9654 29.848 22.9137 30.1489 22.9137 30.4936C22.9137 30.8382 22.9654 31.1369 23.0688 31.3896C23.1745 31.6423 23.3319 31.8387 23.541 31.9789C23.75 32.119 24.0119 32.1914 24.3267 32.196C24.5404 32.2006 24.7334 32.1638 24.9057 32.0857C25.0803 32.0076 25.2273 31.8847 25.3468 31.717C25.4663 31.5493 25.5513 31.3344 25.6018 31.0725L24.8161 31.0725L24.8161 30.3488L26.6012 30.3488C26.6058 30.3787 26.6093 30.4315 26.6116 30.5073C26.6139 30.5832 26.615 30.6268 26.615 30.6383C26.615 31.1139 26.5185 31.5355 26.3255 31.9031C26.1325 32.2707 25.8603 32.559 25.5088 32.7681C25.1572 32.9749 24.7425 33.0782 24.2647 33.0782ZM29.4355 33.0782C28.9392 33.0782 28.5108 32.9703 28.15 32.7543C27.7916 32.5383 27.5148 32.2362 27.3195 31.8479C27.1265 31.4597 27.03 31.0082 27.03 30.4936C27.03 29.9789 27.1265 29.5275 27.3195 29.1392C27.5148 28.7509 27.7916 28.4488 28.15 28.2328C28.5108 28.0168 28.9392 27.9089 29.4355 27.9089C29.9318 27.9089 30.3591 28.0168 30.7175 28.2328C31.0782 28.4488 31.3551 28.7509 31.5481 29.1392C31.7433 29.5275 31.841 29.9789 31.841 30.4936C31.841 31.0082 31.7433 31.4597 31.5481 31.8479C31.3551 32.2362 31.0782 32.5383 30.7175 32.7543C30.3591 32.9703 29.9318 33.0782 29.4355 33.0782ZM29.4355 32.196C29.7503 32.2006 30.0122 32.1328 30.2212 31.9927C30.4303 31.8525 30.5865 31.6538 30.6899 31.3965C30.7956 31.1391 30.8485 30.8382 30.8485 30.4936C30.8485 30.1489 30.7956 29.8503 30.6899 29.5975C30.5865 29.3448 30.4303 29.1484 30.2212 29.0082C30.0122 28.8681 29.7503 28.7957 29.4355 28.7911C29.1207 28.7865 28.8588 28.8543 28.6498 28.9944C28.4407 29.1346 28.2833 29.3333 28.1776 29.5906C28.0742 29.848 28.0225 30.1489 28.0225 30.4936C28.0225 30.8382 28.0742 31.1369 28.1776 31.3896C28.2833 31.6423 28.4407 31.8387 28.6498 31.9789C28.8588 32.119 29.1207 32.1914 29.4355 32.196Z" fill="#AFD4D2"/>
<rect x="46.3949" y="23.626" width="28.4316" height="14.6466" rx="1.89836" fill="#EEF9F8"/>
<path d="M51.1333 32.9749L51.1333 28.0122L52.0707 28.0122L52.0707 32.0995L54.2074 32.0995L54.2074 32.9749L51.1333 32.9749ZM56.7885 33.0782C56.2922 33.0782 55.8638 32.9703 55.503 32.7543C55.1446 32.5383 54.8678 32.2362 54.6725 31.8479C54.4795 31.4597 54.383 31.0082 54.383 30.4936C54.383 29.9789 54.4795 29.5275 54.6725 29.1392C54.8678 28.7509 55.1446 28.4488 55.503 28.2328C55.8638 28.0168 56.2922 27.9089 56.7885 27.9089C57.2848 27.9089 57.7121 28.0168 58.0705 28.2328C58.4312 28.4488 58.7081 28.7509 58.9011 29.1392C59.0963 29.5275 59.194 29.9789 59.194 30.4936C59.194 31.0082 59.0963 31.4597 58.9011 31.8479C58.7081 32.2362 58.4312 32.5383 58.0705 32.7543C57.7121 32.9703 57.2848 33.0782 56.7885 33.0782ZM56.7885 32.196C57.1033 32.2006 57.3652 32.1328 57.5742 31.9927C57.7833 31.8525 57.9396 31.6538 58.0429 31.3965C58.1486 31.1391 58.2015 30.8382 58.2015 30.4936C58.2015 30.1489 58.1486 29.8503 58.0429 29.5975C57.9396 29.3448 57.7833 29.1484 57.5742 29.0082C57.3652 28.8681 57.1033 28.7957 56.7885 28.7911C56.4737 28.7865 56.2118 28.8543 56.0028 28.9944C55.7937 29.1346 55.6363 29.3333 55.5306 29.5906C55.4272 29.848 55.3755 30.1489 55.3755 30.4936C55.3755 30.8382 55.4272 31.1369 55.5306 31.3896C55.6363 31.6423 55.7937 31.8387 56.0028 31.9789C56.2118 32.119 56.4737 32.1914 56.7885 32.196ZM61.9497 33.0782C61.6372 33.0782 61.3397 33.0231 61.0571 32.9128C60.7745 32.8002 60.5241 32.6348 60.3058 32.4166C60.0899 32.1983 59.9187 31.9283 59.7923 31.6067C59.6683 31.285 59.6062 30.914 59.6062 30.4936C59.6062 29.9444 59.7108 29.4781 59.9199 29.0944C60.1312 28.7084 60.4138 28.4143 60.7676 28.2121C61.1237 28.01 61.5178 27.9089 61.9497 27.9089C62.5884 27.9089 63.0904 28.0571 63.4557 28.3534C63.821 28.6498 64.0657 29.0691 64.1898 29.6113L63.2317 29.7492C63.1421 29.4597 62.9951 29.2288 62.7906 29.0565C62.5884 28.8819 62.3288 28.7934 62.0117 28.7911C61.697 28.7865 61.4351 28.8543 61.226 28.9944C61.0169 29.1346 60.8595 29.3333 60.7538 29.5906C60.6505 29.848 60.5988 30.1489 60.5988 30.4936C60.5988 30.8382 60.6505 31.1369 60.7538 31.3896C60.8595 31.6423 61.0169 31.8387 61.226 31.9789C61.4351 32.119 61.697 32.1914 62.0117 32.196C62.2254 32.2006 62.4184 32.1638 62.5907 32.0857C62.7653 32.0076 62.9123 31.8847 63.0318 31.717C63.1513 31.5493 63.2363 31.3344 63.2868 31.0725L62.5011 31.0725L62.5011 30.3488L64.2863 30.3488C64.2908 30.3787 64.2943 30.4315 64.2966 30.5073C64.2989 30.5832 64.3 30.6268 64.3 30.6383C64.3 31.1139 64.2035 31.5355 64.0106 31.9031C63.8176 32.2707 63.5453 32.559 63.1938 32.7681C62.8423 32.9749 62.4276 33.0782 61.9497 33.0782ZM67.1205 33.0782C66.6243 33.0782 66.1958 32.9703 65.8351 32.7543C65.4767 32.5383 65.1998 32.2362 65.0045 31.8479C64.8115 31.4597 64.715 31.0082 64.715 30.4936C64.715 29.9789 64.8115 29.5275 65.0045 29.1392C65.1998 28.7509 65.4767 28.4488 65.8351 28.2328C66.1958 28.0168 66.6243 27.9089 67.1205 27.9089C67.6168 27.9089 68.0441 28.0168 68.4025 28.2328C68.7632 28.4488 69.0401 28.7509 69.2331 29.1392C69.4284 29.5275 69.526 29.9789 69.526 30.4936C69.526 31.0082 69.4284 31.4597 69.2331 31.8479C69.0401 32.2362 68.7632 32.5383 68.4025 32.7543C68.0441 32.9703 67.6168 33.0782 67.1205 33.0782ZM67.1205 32.196C67.4353 32.2006 67.6972 32.1328 67.9063 31.9927C68.1153 31.8525 68.2716 31.6538 68.375 31.3965C68.4806 31.1391 68.5335 30.8382 68.5335 30.4936C68.5335 30.1489 68.4806 29.8503 68.375 29.5975C68.2716 29.3448 68.1153 29.1484 67.9063 29.0082C67.6972 28.8681 67.4353 28.7957 67.1205 28.7911C66.8058 28.7865 66.5439 28.8543 66.3348 28.9944C66.1257 29.1346 65.9683 29.3333 65.8626 29.5906C65.7593 29.848 65.7076 30.1489 65.7076 30.4936C65.7076 30.8382 65.7593 31.1369 65.8626 31.3896C65.9683 31.6423 66.1257 31.8387 66.3348 31.9789C66.5439 32.119 66.8058 32.1914 67.1205 32.196Z" fill="#AFD4D2"/>
<rect x="84.0794" y="23.6251" width="28.4316" height="14.6466" rx="1.89836" fill="#EEF9F8"/>
<path d="M88.8182 32.9751L88.8182 28.0125L89.7556 28.0125L89.7556 32.0997L91.8923 32.0997L91.8923 32.9751L88.8182 32.9751ZM94.4734 33.0785C93.9772 33.0785 93.5487 32.9705 93.188 32.7545C92.8296 32.5386 92.5527 32.2365 92.3574 31.8482C92.1644 31.4599 92.068 31.0084 92.068 30.4938C92.068 29.9792 92.1644 29.5277 92.3574 29.1394C92.5527 28.7511 92.8296 28.449 93.188 28.2331C93.5487 28.0171 93.9772 27.9091 94.4734 27.9091C94.9697 27.9091 95.397 28.0171 95.7554 28.2331C96.1162 28.449 96.393 28.7511 96.586 29.1394C96.7813 29.5277 96.8789 29.9792 96.8789 30.4938C96.8789 31.0084 96.7813 31.4599 96.586 31.8482C96.393 32.2365 96.1162 32.5386 95.7554 32.7545C95.397 32.9705 94.9697 33.0785 94.4734 33.0785ZM94.4734 32.1962C94.7882 32.2008 95.0501 32.1331 95.2592 31.9929C95.4683 31.8528 95.6245 31.654 95.7279 31.3967C95.8336 31.1394 95.8864 30.8384 95.8864 30.4938C95.8864 30.1492 95.8336 29.8505 95.7279 29.5978C95.6245 29.345 95.4683 29.1486 95.2592 29.0085C95.0501 28.8683 94.7882 28.7959 94.4734 28.7913C94.1587 28.7868 93.8968 28.8545 93.6877 28.9947C93.4786 29.1348 93.3212 29.3336 93.2156 29.5909C93.1122 29.8482 93.0605 30.1492 93.0605 30.4938C93.0605 30.8384 93.1122 31.1371 93.2156 31.3898C93.3212 31.6425 93.4786 31.839 93.6877 31.9791C93.8968 32.1193 94.1587 32.1916 94.4734 32.1962ZM99.6346 33.0785C99.3222 33.0785 99.0246 33.0233 98.7421 32.9131C98.4595 32.8005 98.209 32.6351 97.9908 32.4168C97.7748 32.1985 97.6036 31.9286 97.4773 31.6069C97.3532 31.2853 97.2912 30.9142 97.2912 30.4938C97.2912 29.9447 97.3957 29.4783 97.6048 29.0946C97.8162 28.7086 98.0988 28.4146 98.4526 28.2124C98.8087 28.0102 99.2027 27.9091 99.6346 27.9091C100.273 27.9091 100.775 28.0573 101.141 28.3537C101.506 28.6501 101.751 29.0693 101.875 29.6116L100.917 29.7494C100.827 29.4599 100.68 29.229 100.476 29.0567C100.273 28.8821 100.014 28.7936 99.6967 28.7913C99.3819 28.7868 99.12 28.8545 98.9109 28.9947C98.7018 29.1348 98.5445 29.3336 98.4388 29.5909C98.3354 29.8482 98.2837 30.1492 98.2837 30.4938C98.2837 30.8384 98.3354 31.1371 98.4388 31.3898C98.5445 31.6425 98.7018 31.839 98.9109 31.9791C99.12 32.1193 99.3819 32.1916 99.6967 32.1962C99.9103 32.2008 100.103 32.1641 100.276 32.086C100.45 32.0078 100.597 31.8849 100.717 31.7172C100.836 31.5495 100.921 31.3347 100.972 31.0728L100.186 31.0728L100.186 30.3491L101.971 30.3491C101.976 30.3789 101.979 30.4318 101.982 30.5076C101.984 30.5834 101.985 30.6271 101.985 30.6385C101.985 31.1141 101.888 31.5357 101.695 31.9033C101.503 32.2709 101.23 32.5592 100.879 32.7683C100.527 32.9751 100.113 33.0785 99.6346 33.0785ZM104.805 33.0785C104.309 33.0785 103.881 32.9705 103.52 32.7545C103.162 32.5386 102.885 32.2365 102.689 31.8482C102.496 31.4599 102.4 31.0084 102.4 30.4938C102.4 29.9792 102.496 29.5277 102.689 29.1394C102.885 28.7511 103.162 28.449 103.52 28.2331C103.881 28.0171 104.309 27.9091 104.805 27.9091C105.302 27.9091 105.729 28.0171 106.087 28.2331C106.448 28.449 106.725 28.7511 106.918 29.1394C107.113 29.5277 107.211 29.9792 107.211 30.4938C107.211 31.0084 107.113 31.4599 106.918 31.8482C106.725 32.2365 106.448 32.5386 106.087 32.7545C105.729 32.9705 105.302 33.0785 104.805 33.0785ZM104.805 32.1962C105.12 32.2008 105.382 32.1331 105.591 31.9929C105.8 31.8528 105.957 31.654 106.06 31.3967C106.166 31.1394 106.218 30.8384 106.218 30.4938C106.218 30.1492 106.166 29.8505 106.06 29.5978C105.957 29.345 105.8 29.1486 105.591 29.0085C105.382 28.8683 105.12 28.7959 104.805 28.7913C104.491 28.7868 104.229 28.8545 104.02 28.9947C103.811 29.1348 103.653 29.3336 103.548 29.5909C103.444 29.8482 103.393 30.1492 103.393 30.4938C103.393 30.8384 103.444 31.1371 103.548 31.3898C103.653 31.6425 103.811 31.839 104.02 31.9791C104.229 32.1193 104.491 32.1916 104.805 32.1962Z" fill="#AFD4D2"/>
</svg>
